<?xml version="1.0" encoding="UTF-8" standalone="no"?>
<!-- Created with Inkscape (http://www.inkscape.org/) -->
<svg id="svg2" xmlns:rdf="http://www.w3.org/1999/02/22-rdf-syntax-ns#" xmlns="http://www.w3.org/2000/svg" height="84.62" width="84.62" version="1.1" xmlns:cc="http://creativecommons.org/ns#" xmlns:dc="http://purl.org/dc/elements/1.1/">
 <g id="capa1" transform="translate(-195.80221,-337.81458)">
  <path id="path3093" style="baseline-shift:baseline;block-progression:tb;color:#000000;direction:ltr;text-indent:0;text-align:start;enable-background:accumulate;text-transform:none;" fill="#015a01" d="m225.89,354.2,0.0625,1.4688s0.13406,2.5161,0.21875,5.0938c0.0423,1.2888,0.0671,2.6056,0.0625,3.5938-0.002,0.37715-0.019,0.64607-0.0313,0.90625-0.34259,0.0174-0.74429,0.0718-1.2812,0.125-1.2298,0.12195-2.8631,0.40758-4.5,1.1875-3.2737,1.5598-6.4321,5.2382-6.2188,12.812l0.21875,7.5312c-1.9299-1.3022-3.9492-3.0271-5.5938-5-2.1773-2.612-3.6524-5.5849-3.625-8.4688,0.0105-1.1018,0.50618-2.5321,1.3125-3.625s1.8932-1.8033,2.875-1.9062c0.61997-0.065,1.5177,0.25703,2.25,0.875,0.73234,0.61797,1.2408,1.4715,1.2812,2.0938,0.0237,0.36406-0.2102,0.95532-0.65625,1.4375s-1.075,0.81691-1.4688,0.84375c0.0623-0.004-0.0529-0.0236-0.25-0.15625-0.1971-0.13264-0.4651-0.35303-0.6875-0.59375-0.4448-0.48144-0.75-1-0.75-1l-1.6875,1.125s0.39152,0.59398,0.96875,1.2188c0.28861,0.31238,0.63334,0.63849,1.0312,0.90625,0.39791,0.26776,0.873,0.54273,1.5,0.5,1.1073-0.0755,2.0876-0.68518,2.8125-1.4688,0.72485-0.78357,1.2615-1.8001,1.1875-2.9375-0.0908-1.3961-0.91798-2.6133-1.9688-3.5-1.0508-0.88668-2.3896-1.4896-3.7812-1.3438-1.7573,0.18422-3.2114,1.311-4.25,2.7188-1.0386,1.4077-1.703,3.1291-1.7188,4.7812-0.034,3.57,1.7266,6.9415,4.0938,9.7812,2.1176,2.5404,4.7539,4.6686,7.1875,6.125l0.3125,10.656c0.0107,0.38112,0.0998,0.73679,0.1875,1.0938-1.2472,0.0264-3.4836,0.0794-7.0938,0.15625-2.2503,0.0479-4.541,0.0788-6.3438,0.125-0.22708,0.006-0.22997-0.006-0.4375,0,0.16095-0.31781,0.30745-0.63129,0.40625-1,0.55731-2.0799-0.19839-4.101-1.6875-4.5-0.18614-0.0499-0.37354-0.0656-0.5625-0.0625-1.3228,0.0219-2.6374,1.2738-3.125,3.0938-0.55731,2.0799,0.19838,4.101,1.6875,4.5,0.13393,0.0359,0.2705,0.0231,0.40625,0.0313v0.0625c0.12943-0.0118,1.5777-0.0789,3.375-0.125s4.0637-0.0772,6.3125-0.125c4.0524-0.0862,7.2306-0.14065,7.9688-0.15625,0.55915,0.79665,1.2882,1.5202,2.125,2.125,1.8034,1.3034,4.1033,2.2335,6.4688,2.8438,2.2147,0.57132,4.454,0.8262,6.4062,0.78125-0.50579,1.1162-0.16145,2.7262,0.96875,4.0312,1.4096,1.6277,3.4909,2.1342,4.6562,1.125,1.1654-1.0092,0.97212-3.1535-0.4375-4.7812-0.38628-0.44605-0.82609-0.79352-1.2812-1.0625,0.50228-0.25651,0.92942-0.61855,1.25-1.0938,0,0,2.8441-4.0443,5.9688-8.625,12.033-2.6973,20.947-11.031,21.156-21.188,0.0456-2.2086-1.1665-4.3284-2.75-5.9688-0.0913-0.0946-0.18736-0.18958-0.28125-0.28125,1.367-1.3468,2.6377-2.5935,4.125-4.0625,4.8667-4.8066,9.5051-9.3824,9.6875-9.5625,0.14623,0.0155,0.28246,0.0313,0.4375,0.0313,1.245,0,2.25-0.53794,2.25-1.1875s-1.005-1.1875-2.25-1.1875-2.25,0.53794-2.25,1.1875c0,0.32478,0.24831,0.63091,0.65625,0.84375-0.55477,0.54759-4.5961,4.5598-9.25,9.1562-1.508,1.4894-2.7833,2.7633-4.1562,4.125-1.3777-1.1486-2.944-1.9589-4.5312-2.0938-2.2473-0.19089-4.1592,1.469-5.6562,2.9688-0.66324,0.66445-1.2176,1.3028-1.6562,1.8438-1.2471-1.5657-2.4584-2.5153-3.3125-3.125l6.9688-5.5625,1.4375-1.1562-1.75-0.5625-23.625-7.9688-1.375-0.46875zm2.125,2.8125,20.531,6.9062-3.4375,2.75c-1.0135,0.11432-2.1945,0.13211-2.8125-0.15625-0.40603-0.18944-0.66372-0.69732-0.9375-1.2812-0.27378-0.58393-0.59021-1.2712-1.2812-1.5-0.38291-0.12679-0.77481-0.0598-1.125,0.0625-0.35019,0.12232-0.65174,0.32039-0.96875,0.5s-0.62809,0.34321-0.90625,0.4375c-0.27816,0.0943-0.51794,0.11428-0.75,0.0313-0.21171-0.0758-0.38659-0.24631-0.53125-0.5s-0.25249-0.56543-0.375-0.90625-0.24345-0.69797-0.4375-1-0.48165-0.57913-0.875-0.65625c-0.36198-0.071-0.70806,0.0824-0.96875,0.28125-0.26069,0.19889-0.47624,0.44231-0.6875,0.6875s-0.40597,0.48439-0.59375,0.625-0.33053,0.19452-0.5,0.15625c-0.1777-0.0401-0.29417-0.15064-0.40625-0.34375s-0.19234-0.45155-0.28125-0.75c-0.0889-0.29845-0.17035-0.64443-0.3125-0.9375s-0.36318-0.56891-0.6875-0.71875c-0.44827-0.2071-0.98585-0.0827-1.4375,0.0313-0.0265,0.007-0.0366,0.0242-0.0625,0.0313-0.00072-0.0223,0.00073-0.0403,0-0.0625-0.0612-1.862-0.11212-2.7954-0.15625-3.6875zm1,4.1562c0.19316-0.005,0.35153,0.0228,0.4375,0.0625,0.16844,0.0778,0.29538,0.20893,0.40625,0.4375s0.19094,0.54059,0.28125,0.84375c0.0903,0.30316,0.18445,0.60053,0.34375,0.875s0.39822,0.51432,0.75,0.59375c0.36001,0.0813,0.70741-0.0543,0.96875-0.25s0.47589-0.4419,0.6875-0.6875,0.40372-0.48002,0.59375-0.625,0.36056-0.18972,0.53125-0.15625c0.21837,0.0428,0.35514,0.14954,0.5,0.375s0.25367,0.56871,0.375,0.90625,0.25567,0.68112,0.4375,1,0.43732,0.61569,0.8125,0.75c0.38027,0.13613,0.77477,0.0875,1.125-0.0313,0.35023-0.11872,0.65116-0.32007,0.96875-0.5s0.62551-0.33943,0.90625-0.4375c0.28074-0.0981,0.54674-0.14015,0.78125-0.0625,0.41913,0.13878,0.6668,0.61012,0.9375,1.1875s0.53376,1.2575,1.1875,1.5625c0.62007,0.28931,1.466,0.32251,2.2812,0.28125l-2.3438,1.875-1.125,0.90625,1.25,0.75s2.7518,1.6394,4.6875,4.5938c1.473,2.2481,2.4922,5.1198,1.4375,8.75-0.71434,0.0175-1.6457,0.0667-2.625,0.1875-1.0308,0.12715-2.1353,0.32802-3.0625,0.6875-0.92721,0.35948-1.6957,0.86759-2.0938,1.625-0.37203,0.70795-0.33861,1.5697-0.125,2.4688,0.21361,0.89906,0.61723,1.8643,1.0625,2.7188,0.41901,0.80408,0.88708,1.5124,1.25,2.0625-0.53273,0.79711-1.0565,1.5874-1.5938,2.375-0.11473-0.0333-0.18054-0.0541-0.3125-0.0937-0.7362-0.22104-1.7738-0.54085-3-0.9375-2.4525-0.79331-5.6705-1.8612-8.875-2.9375-6.1461-2.0644-11.92-4.0813-12.406-4.25l-0.0625-1.7812c0.69257-0.33567,1.6236-0.80787,2.6875-1.5,0.89317-0.58105,1.7635-1.253,2.4375-2,0.67399-0.74702,1.1578-1.5652,1.125-2.4375-0.0308-0.81889-0.53904-1.5706-1.2188-2.2188-0.67971-0.64814-1.5356-1.21-2.4062-1.6875-1.0181-0.55835-1.8964-0.92756-2.5625-1.1875,0.71692-4.0671,2.7681-5.9173,4.8438-6.9062,1.3367-0.63691,2.7131-0.89097,3.8125-1,0.54972-0.0545,1.0326-0.0739,1.4062-0.0937,0.18681-0.01,0.3354-0.0103,0.5-0.0313,0.0823-0.0105,0.16603-0.0297,0.28125-0.0625s0.27829-0.0318,0.53125-0.3125c0.36771-0.40807,0.2843-0.52985,0.3125-0.6875s0.0497-0.3201,0.0625-0.5c0.0257-0.35981,0.0288-0.79439,0.0313-1.3125,0.004-0.85914-0.0324-1.9545-0.0625-3.0312,0.0998-0.0323,0.10151-0.033,0.21875-0.0625,0.2039-0.0514,0.43184-0.0889,0.625-0.0937zm25.281,9.0625c0.14479-0.0248,0.28339-0.0104,0.40625,0,0.93645,0.0795,2.1403,0.64016,3.25,1.5-0.38239,0.37952-0.90343,0.90596-1.25,1.25-0.94442,0.93753-1.7446,1.7432-2.3125,2.3125-0.10326,0.1035-0.15979,0.1602-0.25,0.25-0.43141-0.23069-0.9118-0.37474-1.4375-0.375-1.0212-0.0005-2.2296,0.76106-2.9062,1.7188-0.29455-0.76677-0.66649-1.4702-1.0625-2.125,0.38798-0.52627,0.98371-1.2633,1.875-2.1562,1.1832-1.1854,2.674-2.2011,3.6875-2.375zm4.4375,2.1562c0.0856,0.0821,0.16729,0.16432,0.25,0.25,1.3233,1.3709,2.2167,3.1171,2.1875,4.5312-0.17388,8.4241-7.2084,15.753-17.438,18.75,1.707-2.5371,3.3515-5.055,4.5625-7.0312,1.1209-1.8292,1.7502-3.5707,2.0625-5.2188l0.8125,3.6875,3.1875,0.0625s2.9548-4.7563,2.5-7.3438c-0.2528-1.4382-0.88563-3.0034-1.9062-3.9688,0.048-0.0496,0.0724-0.0723,0.125-0.125,0.56572-0.56705,1.3687-1.3443,2.3125-2.2812,0.36717-0.36449,0.93448-0.9082,1.3438-1.3125zm-42.344,3.3438c0.64222,0.25943,1.4753,0.66282,2.375,1.1562,0.84757,0.46483,1.6832,1.0249,2.3125,1.625,0.62932,0.60009,1.039,1.2187,1.0625,1.8438,0.0255,0.67849-0.37266,1.3984-1,2.0938-0.62734,0.69532-1.4727,1.3708-2.3438,1.9375-0.87107,0.56667-1.749,1.0167-2.4062,1.3438l-0.1875-6.375c-0.0384-1.3625,0.0346-2.567,0.1875-3.625zm31.688,8.9375c-0.33503,0.99563-0.82154,2.0491-1.5,3.1562-1.0574,1.7254-2.3234,3.6686-3.625,5.625-0.33983-0.52028-0.75282-1.1295-1.125-1.8438-0.4335-0.83188-0.83272-1.7269-1.0312-2.5625-0.19853-0.83561-0.19266-1.5799,0.0937-2.125,0.31244-0.59457,0.97735-1.0704,1.8438-1.4062,0.8664-0.3359,1.932-0.53222,2.9375-0.65625,0.88954-0.10973,1.7296-0.16659,2.4062-0.1875zm-31.562,5.5625c0.18319,0.0624,1.8269,0.62621,2.375,0.8125-0.38746,0.42026-0.5659,0.62403-1.1562,1.25-0.40302,0.42735-0.77392,0.81504-1.125,1.1875l-0.0937-3.25zm2.9062,1c0.12182,0.0414,0.33538,0.11096,0.46875,0.15625l1.6562,10.812c-0.61987-0.15877-1.4023-0.36226-1.9375-0.5-0.91029-0.23427-1.6651-0.41824-2.2188-0.5625-0.14451-0.0376-0.23076-0.0601-0.34375-0.0937-0.14082-0.36813-0.23911-0.73837-0.25-1.125l-0.15625-5.75c0.41614-0.43292,0.9507-0.98194,1.4688-1.5312,0.66764-0.70793,1.0045-1.0729,1.3125-1.4062zm0.96875,0.3125c2.1307,0.72332,3.4385,1.1872,6.875,2.3438l-5.2188,8.1875-1.6562-10.531zm7.3438,2.5c0.0282,0.009,0.0343-0.01,0.0625,0l0.5625,9.9062c-0.94217-0.24087-1.0697-0.28474-2.1562-0.5625-1.3617-0.34811-2.5172-0.64536-3.7812-0.96875l5.3125-8.375zm0.59375,0.1875c2.4419,0.82031,4.6694,1.5524,6.7812,2.25l-6.2812,6.9688-0.5-9.2188zm7.3125,2.4375c0.0654,0.0215,0.15409,0.0413,0.21875,0.0625l0.5625,6.25c-0.52369,0.74814-1.7031,2.4518-1.7812,2.5625-0.57022-0.14504-3.3445-0.86177-5.7188-1.4688l6.7188-7.4062zm0.71875,0.25c0.22664,0.074,0.56576,0.1803,0.78125,0.25,1.1064,0.35789,1.9851,0.62342,2.7188,0.84375-1.0547,1.5307-2.2138,3.1867-3,4.3125l-0.5-5.4062zm-18.625,5.3438c0.48179,0.12173,0.95849,0.23472,1.625,0.40625,1.8216,0.46879,4.2191,1.0804,6.5938,1.6875,3.8993,0.99681,6.4938,1.6492,7.75,1.9688-0.55266,0.22796-1.3869,0.45035-2.4688,0.5-1.7801,0.0817-4.064-0.15484-6.25-0.71875s-4.3052-1.4419-5.8125-2.5312c-0.57938-0.41875-1.0648-0.85401-1.4375-1.3125z"/>
  <path id="path3097" style="baseline-shift:baseline;block-progression:tb;color:#000000;direction:ltr;text-indent:0;text-align:start;enable-background:accumulate;text-transform:none;" fill="#015a01" d="m227.9,370.4c-1.062-0.23166-2.4661,0.2566-3.625,0.75s-2.0625,1.0312-2.0625,1.0312l0.25,0.4375s0.8755-0.52125,2-1,2.4936-0.8974,3.3125-0.71875c0.54683,0.11929,1.3251,0.76812,1.9062,1.4062,0.58119,0.63813,1,1.25,1,1.25l0.40625-0.28125s-0.42486-0.64671-1.0312-1.3125c-0.60639-0.66579-1.3664-1.3902-2.1562-1.5625z"/>
  <path id="path3099" style="baseline-shift:baseline;block-progression:tb;color:#000000;direction:ltr;text-indent:0;text-align:start;enable-background:accumulate;text-transform:none;" fill="#015a01" d="m240.46,374.03c-0.72819-0.0953-1.55,0.32737-2.25,0.71875-0.69998,0.39138-1.25,0.78125-1.25,0.78125l0.28125,0.40625s0.52114-0.40866,1.1875-0.78125,1.4956-0.68695,1.9688-0.625c0.75897,0.0994,1.8097,0.89659,2.625,1.6875,0.81529,0.79091,1.4375,1.5625,1.4375,1.5625l0.375-0.3125s-0.62582-0.77602-1.4688-1.5938c-0.84293-0.81773-1.8922-1.711-2.9062-1.8438z"/>
  <path id="path3103" style="baseline-shift:baseline;block-progression:tb;color:#000000;direction:ltr;text-indent:0;text-align:start;enable-background:accumulate;text-transform:none;" fill="#015a01" d="m223.87,383.37-0.5,0.0937s0.21391,1.2697,1.0938,2.6562c0.87984,1.3866,2.4648,2.9013,5.2188,3.3438,3.3049,0.53099,5.3867,0.0895,6.6562-0.5,0.63476-0.29474,1.0753-0.64115,1.3438-0.90625,0.1342-0.13255,0.21887-0.22507,0.28125-0.3125l-0.40615-0.3125c-0.0442,0.062-0.10447,0.16838-0.21875,0.28125-0.22855,0.22574-0.60524,0.54213-1.1875,0.8125-1.1645,0.54074-3.176,0.9565-6.4062,0.4375-2.6099-0.41933-4.0523-1.7972-4.875-3.0938-0.82269-1.2965-1-2.5-1-2.5z"/>
  <path id="path3109" style="baseline-shift:baseline;block-progression:tb;color:#000000;direction:ltr;text-indent:0;text-align:start;enable-background:accumulate;text-transform:none;" fill="#015a01" d="m277.8,348.56s-5.0754,3.9041-6.5625,5.0938l0.625,0.78125c1.4532-1.1626,6.5312-5.0938,6.5312-5.0938l-0.59375-0.78125z"/>
  <path id="path3111" style="baseline-shift:baseline;block-progression:tb;color:#000000;direction:ltr;text-indent:0;text-align:start;enable-background:accumulate;text-transform:none;" fill="#015a01" d="m262.05,345.75-0.71875,0.6875c0.10764,0.10764,0.73593,0.85984,1.4688,1.8125,0.73282,0.95266,1.6186,2.1685,2.5,3.3438,1.7629,2.3505,3.4375,4.5938,3.4375,4.5938l0.8125-0.59375s-1.672-2.2397-3.4375-4.5938c-0.88277-1.177-1.7939-2.3852-2.5312-3.3438-0.73735-0.95855-1.2468-1.6218-1.5312-1.9062z"/>
  <path id="path3113" style="baseline-shift:baseline;block-progression:tb;color:#000000;direction:ltr;text-indent:0;text-align:start;enable-background:accumulate;text-transform:none;" fill="#015a01" d="m272.93,360.31-0.21875,1c0.72831,0.17137,2.5574,0.87217,4.1562,1.5312,1.5989,0.65908,3,1.2812,3,1.2812l0.40625-0.9375s-1.4203-0.61718-3.0312-1.2812c-1.611-0.66407-3.3746-1.3731-4.3125-1.5938z"/>
  <path id="path3937" style="baseline-shift:baseline;block-progression:tb;color:#000000;direction:ltr;text-indent:0;text-align:start;enable-background:accumulate;text-transform:none;" fill="#015a01" d="m232.62,379.19a0.50005,0.50005,0,0,0,-0.40625,0.375l-1.6562,4.9062a0.50895,0.50895,0,1,0,0.96875,0.3125l1.625-4.9062a0.50005,0.50005,0,0,0,-0.53125,-0.6875z"/>
  <path id="path3939" style="baseline-shift:baseline;block-progression:tb;color:#000000;direction:ltr;text-indent:0;text-align:start;enable-background:accumulate;text-transform:none;" fill="#015a01" d="m239.49,379.84a0.50005,0.50005,0,0,0,-0.34375,0.34375s-0.29328,0.69517-0.59375,1.4375c-0.15023,0.37117-0.30231,0.73513-0.4375,1.0312-0.0676,0.14806-0.10802,0.28518-0.15625,0.375-0.0482,0.0898-0.11887,0.15011-0.0625,0.0937a0.50005,0.50005,0,1,0,0.6875,0.71875c0.12778-0.12778,0.18497-0.22267,0.25-0.34375,0.065-0.12108,0.11449-0.24633,0.1875-0.40625,0.14601-0.31984,0.31547-0.71506,0.46875-1.0938,0.30656-0.75739,0.59375-1.4688,0.59375-1.4688a0.50005,0.50005,0,0,0,-0.59375,-0.6875z"/>
  <path id="path3939-3" style="baseline-shift:baseline;block-progression:tb;color:#000000;direction:ltr;text-indent:0;text-align:start;enable-background:accumulate;text-transform:none;" fill="#015a01" d="m226.58,375.5a0.50005,0.50005,0,0,0,-0.34375,0.3125s-0.26203,0.72642-0.5625,1.4688c-0.15023,0.37117-0.30231,0.73513-0.4375,1.0312-0.0676,0.14806-0.13927,0.28518-0.1875,0.375-0.0482,0.0898-0.11887,0.15011-0.0625,0.0937a0.50823,0.50823,0,1,0,0.71875,0.71875c0.12778-0.12778,0.15372-0.22267,0.21875-0.34375,0.065-0.12108,0.14574-0.27758,0.21875-0.4375,0.14601-0.31984,0.31547-0.68381,0.46875-1.0625,0.30656-0.75739,0.5625-1.5,0.5625-1.5a0.50005,0.50005,0,0,0,-0.59375,-0.65625z"/>
  <path id="path3969" style="enable-background:accumulate;color:#000000;" fill-rule="nonzero" fill="#015a01" d="m223.75,395.06c0,0.4733-0.38368,0.85698-0.85698,0.85698s-0.85699-0.38368-0.85699-0.85698,0.38369-0.85698,0.85699-0.85698,0.85698,0.38368,0.85698,0.85698z"/>
  <path id="path3969-3" style="enable-background:accumulate;color:#000000;" fill-rule="nonzero" fill="#015a01" d="m232.1,397.7c0,0.4733-0.38368,0.85698-0.85698,0.85698s-0.85699-0.38368-0.85699-0.85698,0.38369-0.85698,0.85699-0.85698,0.85698,0.38368,0.85698,0.85698z"/>
  <flowRoot id="flowRoot3993" style="writing-mode:lr-tb;letter-spacing:0px;text-anchor:start;word-spacing:0px;text-align:start;" line-height="104.99999523%" font-weight="normal" xml:space="preserve" font-size="12px" transform="translate(0.14654841,-2.720264)" font-stretch="normal" font-variant="normal" font-style="normal" font-family="Purisa" fill="#000000"><flowRegion id="flowRegion3995"><rect id="rect3997" y="194.66" width="17.768" x="22.614" height="67.033"/></flowRegion><flowPara id="flowPara3999"/></flowRoot>
 </g>
</svg>
